<mxfile host="app.diagrams.net" agent="Mozilla/5.0 (Macintosh; Intel Mac OS X 10_15_7) AppleWebKit/537.36 (KHTML, like Gecko) Chrome/129.0.0.0 Safari/537.36" version="24.7.17">
  <diagram name="第 1 页" id="3sD-NM4lYeUQN5KGjvz1">
    <mxGraphModel dx="1117" dy="798" grid="1" gridSize="10" guides="1" tooltips="1" connect="1" arrows="1" fold="1" page="1" pageScale="1" pageWidth="827" pageHeight="1169" math="1" shadow="0">
      <root>
        <mxCell id="0" />
        <mxCell id="1" parent="0" />
        <mxCell id="YxVL_wrR-ot3flxtaS3l-88" value="" style="rounded=1;whiteSpace=wrap;html=1;arcSize=3;align=center;labelPosition=center;verticalLabelPosition=middle;verticalAlign=middle;fillColor=none;strokeColor=#6c8ebf;strokeWidth=2;fontFamily=Times New Roman;fontSize=20;" vertex="1" parent="1">
          <mxGeometry x="50" y="50" width="600" height="630" as="geometry" />
        </mxCell>
        <mxCell id="YxVL_wrR-ot3flxtaS3l-89" value="$$\frac{5}{\csc(\csc^{-1}(\frac{1}{\ln (\frac{x}{-5} )}))}&lt;br&gt;$$" style="text;align=left;verticalAlign=middle;rounded=0;fontFamily=Times New Roman;fontSize=18;whiteSpace=wrap;html=1;" vertex="1" parent="1">
          <mxGeometry x="140" y="120" width="150" height="55" as="geometry" />
        </mxCell>
        <mxCell id="YxVL_wrR-ot3flxtaS3l-90" value="&lt;font style=&quot;font-size: 18px;&quot;&gt;$$\frac{5}{\csc(\csc^{-1}(\frac{1}{\ln (x\frac{1}{-5} )}))}$$&lt;/font&gt;" style="text;html=1;align=left;verticalAlign=middle;whiteSpace=wrap;rounded=0;fontFamily=Times New Roman;fontSize=18;" vertex="1" parent="1">
          <mxGeometry x="140" y="175" width="160" height="55" as="geometry" />
        </mxCell>
        <mxCell id="YxVL_wrR-ot3flxtaS3l-91" value="$$\frac{5}{\csc(\csc^{-1}(\frac{1}{\ln (\frac{1}{-5}x )}))}$$" style="text;align=left;verticalAlign=middle;rounded=0;fontFamily=Times New Roman;fontSize=18;html=1;whiteSpace=wrap;" vertex="1" parent="1">
          <mxGeometry x="140" y="230" width="160" height="55" as="geometry" />
        </mxCell>
        <mxCell id="YxVL_wrR-ot3flxtaS3l-92" value="$$\frac{5}{\textcolor{red}{\sec}(\csc^{-1}((\ln (\frac{1}{-5}x ))^{-1}))}$$" style="text;align=left;verticalAlign=middle;rounded=0;fontFamily=Times New Roman;fontSize=18;whiteSpace=wrap;html=1;" vertex="1" parent="1">
          <mxGeometry x="140" y="285" width="200" height="55" as="geometry" />
        </mxCell>
        <mxCell id="YxVL_wrR-ot3flxtaS3l-93" value="$$\frac{5}{1-((\ln(\frac{1}{-5}x ))^{2})^{-\frac{1}{2} }}$$" style="text;align=left;verticalAlign=middle;rounded=0;fontFamily=Times New Roman;fontSize=18;whiteSpace=wrap;html=1;" vertex="1" parent="1">
          <mxGeometry x="140" y="340" width="170" height="55" as="geometry" />
        </mxCell>
        <mxCell id="YxVL_wrR-ot3flxtaS3l-94" value="$$5\sqrt[]{1-(\ln (\frac{-1}{5}x ))^{2}}$$" style="text;align=left;verticalAlign=middle;rounded=0;fontFamily=Times New Roman;fontSize=18;whiteSpace=wrap;html=1;" vertex="1" parent="1">
          <mxGeometry x="140" y="395" width="160" height="55" as="geometry" />
        </mxCell>
        <mxCell id="YxVL_wrR-ot3flxtaS3l-100" value="&lt;div style=&quot;text-align: justify;&quot;&gt;&lt;span style=&quot;background-color: initial;&quot;&gt;&lt;font style=&quot;font-size: 18px;&quot;&gt;I will give you mathematical derivation steps, try to find out all possible mistakes in it&lt;/font&gt;&lt;/span&gt;&lt;/div&gt;" style="text;align=center;verticalAlign=middle;rounded=0;fontSize=16;fontFamily=Times New Roman;html=1;whiteSpace=wrap;" vertex="1" parent="1">
          <mxGeometry x="70" y="70" width="560" height="40" as="geometry" />
        </mxCell>
        <mxCell id="YxVL_wrR-ot3flxtaS3l-101" value="" style="rounded=1;whiteSpace=wrap;html=1;arcSize=3;fillColor=none;strokeColor=#82b366;strokeWidth=2;" vertex="1" parent="1">
          <mxGeometry x="50" y="710" width="600" height="380" as="geometry" />
        </mxCell>
        <mxCell id="YxVL_wrR-ot3flxtaS3l-102" value="Step 1:" style="text;align=center;verticalAlign=middle;rounded=0;whiteSpace=wrap;html=1;fontFamily=Times New Roman;fontSize=18;fontStyle=0" vertex="1" parent="1">
          <mxGeometry x="70" y="120" width="70" height="55" as="geometry" />
        </mxCell>
        <mxCell id="YxVL_wrR-ot3flxtaS3l-103" value="&lt;font face=&quot;Times New Roman&quot; style=&quot;font-size: 20px;&quot;&gt;Question&lt;/font&gt;" style="rounded=1;whiteSpace=wrap;html=1;arcSize=50;strokeWidth=2;fillColor=default;strokeColor=#6c8ebf;" vertex="1" parent="1">
          <mxGeometry x="250" y="37" width="200" height="26" as="geometry" />
        </mxCell>
        <mxCell id="YxVL_wrR-ot3flxtaS3l-104" value="&lt;div style=&quot;&quot;&gt;&lt;span style=&quot;background-color: initial;&quot;&gt;&lt;font style=&quot;font-size: 20px;&quot;&gt;GPT-4o Response&lt;/font&gt;&lt;/span&gt;&lt;/div&gt;" style="rounded=1;whiteSpace=wrap;html=1;arcSize=50;fontFamily=Times New Roman;fontSize=23;align=center;strokeWidth=2;fillColor=default;strokeColor=#82b366;" vertex="1" parent="1">
          <mxGeometry x="250" y="697" width="200" height="26" as="geometry" />
        </mxCell>
        <mxCell id="YxVL_wrR-ot3flxtaS3l-111" value="Step 6:" style="text;align=center;verticalAlign=middle;rounded=0;whiteSpace=wrap;html=1;fontFamily=Times New Roman;fontSize=18;fontStyle=0" vertex="1" parent="1">
          <mxGeometry x="70" y="395" width="70" height="55" as="geometry" />
        </mxCell>
        <mxCell id="YxVL_wrR-ot3flxtaS3l-112" value="Step 5:" style="text;align=center;verticalAlign=middle;rounded=0;whiteSpace=wrap;html=1;fontFamily=Times New Roman;fontSize=18;fontStyle=0" vertex="1" parent="1">
          <mxGeometry x="70" y="340" width="70" height="55" as="geometry" />
        </mxCell>
        <mxCell id="YxVL_wrR-ot3flxtaS3l-113" value="Step 4:" style="text;align=center;verticalAlign=middle;rounded=0;whiteSpace=wrap;html=1;fontFamily=Times New Roman;fontSize=18;fontStyle=0" vertex="1" parent="1">
          <mxGeometry x="70" y="285" width="70" height="55" as="geometry" />
        </mxCell>
        <mxCell id="YxVL_wrR-ot3flxtaS3l-114" value="Step 3:" style="text;align=center;verticalAlign=middle;rounded=0;whiteSpace=wrap;html=1;fontFamily=Times New Roman;fontSize=18;fontStyle=0" vertex="1" parent="1">
          <mxGeometry x="70" y="230" width="70" height="55" as="geometry" />
        </mxCell>
        <mxCell id="YxVL_wrR-ot3flxtaS3l-115" value="Step 2:" style="text;align=center;verticalAlign=middle;rounded=0;whiteSpace=wrap;html=1;fontFamily=Times New Roman;fontSize=18;fontStyle=0" vertex="1" parent="1">
          <mxGeometry x="70" y="175" width="70" height="55" as="geometry" />
        </mxCell>
        <mxCell id="YxVL_wrR-ot3flxtaS3l-118" value="&lt;div style=&quot;font-size: 18px;&quot;&gt;&lt;div&gt;&lt;font face=&quot;Times New Roman&quot;&gt;This derivation is correct. Here&#39;s a breakdown of why:&lt;/font&gt;&lt;/div&gt;&lt;div&gt;&lt;font face=&quot;bUsjey62FLjx2DzNffp2&quot;&gt;&lt;b&gt;Steps 1 to 3&lt;/b&gt;: You simplified \(\frac{5}{\csc (\csc^{-1}(...))}\) correctly, transitioning into the logarithmic form involving \(\ln(\frac{x}{-5})\). The transformation from division into multiplication by \(\frac{-1}{5}\) is also accurate.&lt;/font&gt;&lt;/div&gt;&lt;div&gt;&lt;font face=&quot;bUsjey62FLjx2DzNffp2&quot; style=&quot;font-size: 18px;&quot;&gt;&lt;b&gt;Step 4&lt;/b&gt;: The transition from \(\csc (\csc^{-1}(...))\) to \(\sec (\csc^{-1}(...))\) is valid because \(\csc^{-1}(y) = \frac{1}{\sin(y)} \), and switching to \(\sec\) correctly follows trigonometric identities here.&lt;/font&gt;&lt;/div&gt;&lt;div&gt;&lt;font face=&quot;bUsjey62FLjx2DzNffp2&quot;&gt;&lt;b&gt;Step 5&lt;/b&gt;: The step \(\sec(\csc^{-1}(...)) = \sqrt[]{1-(\ln(...))^{2}} \) is a valid simplification using the Pythagorean identity, \(\sec(x) = \sqrt[]{1-\sin^{2}(x)} \).&lt;/font&gt;&lt;/div&gt;&lt;div&gt;&lt;font face=&quot;bUsjey62FLjx2DzNffp2&quot;&gt;&lt;b&gt;Step 6&lt;/b&gt;: Finally, the expression \(\sqrt[]{1-(\ln(...))^{2}}\) is accurate, representing the correct simplified form of the secant expression.&lt;/font&gt;&lt;/div&gt;&lt;div&gt;&lt;font face=&quot;bUsjey62FLjx2DzNffp2&quot;&gt;The derivation logically follows through to the final result:&lt;/font&gt;&lt;/div&gt;&lt;div&gt;&lt;font face=&quot;bUsjey62FLjx2DzNffp2&quot;&gt;\(5\sqrt[]{1-(\ln (\frac{-1}{5}x ))^{2}}&amp;nbsp; \)&lt;/font&gt;&lt;/div&gt;&lt;div&gt;&lt;font face=&quot;bUsjey62FLjx2DzNffp2&quot;&gt;This matches the correct sequence of operations and transformations.&lt;/font&gt;&lt;/div&gt;&lt;/div&gt;" style="text;html=1;align=left;verticalAlign=middle;whiteSpace=wrap;rounded=0;fontFamily=Times New Roman;" vertex="1" parent="1">
          <mxGeometry x="70" y="730" width="560" height="350" as="geometry" />
        </mxCell>
      </root>
    </mxGraphModel>
  </diagram>
</mxfile>
